<svg width="85" height="85" viewBox="0 0 85 85" fill="none" xmlns="http://www.w3.org/2000/svg">
<g clip-path="url(#clip0_1086_456)">
<rect width="85" height="85" rx="30" fill="#9BC175"/>
<path d="M79 79C79 81.1217 78.1571 83.1566 76.6569 84.6569C75.1566 86.1571 73.1217 87 71 87H15C12.8783 87 10.8434 86.1571 9.34315 84.6569C7.84285 83.1566 7 81.1217 7 79C7 72.6348 9.52856 66.5303 14.0294 62.0294C18.5303 57.5286 24.6348 55 31 55H55C61.3652 55 67.4697 57.5286 71.9706 62.0294C76.4714 66.5303 79 72.6348 79 79ZM43 47C46.9556 47 50.8224 45.827 54.1114 43.6294C57.4004 41.4318 59.9638 38.3082 61.4776 34.6537C62.9913 30.9992 63.3874 26.9778 62.6157 23.0982C61.844 19.2186 59.9392 15.6549 57.1421 12.8579C54.3451 10.0608 50.7814 8.15601 46.9018 7.3843C43.0222 6.6126 39.0009 7.00867 35.3463 8.52242C31.6918 10.0362 28.5682 12.5996 26.3706 15.8886C24.173 19.1776 23 23.0444 23 27C23 32.3043 25.1071 37.3914 28.8579 41.1421C32.6086 44.8929 37.6957 47 43 47Z" fill="#C5D7A1"/>
</g>
<defs>
<clipPath id="clip0_1086_456">
<rect width="85" height="85" rx="42.5" fill="white"/>
</clipPath>
</defs>
</svg>
